<svg xmlns="http://www.w3.org/2000/svg" viewBox="0 0 120 60" width="480" height="240">
  <!-- Astrea vac truck, side profile. Same drawing as the in-app <symbol id="vac-truck">.
       The fleet number is a separate text layer; change "03" or remove it. -->
  <title>Astrea vac truck</title>
  <ellipse cx="60" cy="54.6" rx="52" ry="3" fill="#101D35" opacity=".16"/>
  <path d="M39.5 43 V6.5" stroke="#2a3140" stroke-width="3.4" stroke-linecap="round"/>
  <path d="M39.5 6.8 C49 3.6 55.5 9 52.3 17.5" stroke="#12161d" stroke-width="3.3" fill="none" stroke-linecap="round"/>
  <rect x="8" y="40.5" width="104" height="5.5" rx="1.6" fill="#1d2330"/>
  <rect x="106" y="19.5" width="7.5" height="23.5" rx="1.6" fill="#2f3747"/>
  <rect x="43" y="12.5" width="64" height="28.5" rx="12.5" fill="#c9d1db" stroke="#8793a3" stroke-width="1"/>
  <rect x="48" y="15.3" width="54" height="3.6" rx="1.8" fill="#f2f5f9"/>
  <rect x="52" y="13" width="2.3" height="27.5" fill="#98a3b2"/>
  <rect x="96" y="13" width="2.3" height="27.5" fill="#98a3b2"/>
  <rect x="56" y="36.6" width="38" height="2.5" rx="1.25" fill="#2463EB"/>
  <rect x="60.5" y="9.4" width="9" height="4" rx="1" fill="#8793a3"/>
  <ellipse cx="106" cy="26.8" rx="4.6" ry="12.8" fill="#b4becb" stroke="#8793a3" stroke-width="1"/>
  <path d="M112.5 23 C121 25 120.5 39.5 115.2 49" stroke="#12161d" stroke-width="3.3" fill="none" stroke-linecap="round"/>
  <path d="M5 44 V27 Q5 23 7.5 19.5 L12 12.5 Q13.5 10.5 16.5 10.5 H32 Q35 10.5 35 13.5 V44 Z" fill="#ffffff" stroke="#aeb8c6" stroke-width="1"/>
  <path d="M10.5 22 L14.2 15.4 Q14.9 14.3 16.3 14.3 H24.5 V22 Z" fill="#26344f"/>
  <rect x="26.5" y="14.3" width="6" height="7.7" rx="1" fill="#26344f"/>
  <path d="M19.2 37 L22.6 28.4 L26 37" stroke="#2463EB" stroke-width="2.4" fill="none" stroke-linecap="round" stroke-linejoin="round"/>
  <rect x="3" y="39.5" width="7" height="4.5" rx="1" fill="#1d2330"/>
  <rect x="5" y="31.5" width="3" height="3" rx=".8" fill="#dfe5ec"/>
  <g fill="#161b24"><circle cx="21" cy="46.5" r="7"/><circle cx="80" cy="46.5" r="7"/><circle cx="96" cy="46.5" r="7"/></g>
  <g fill="#8a95a5"><circle cx="21" cy="46.5" r="2.8"/><circle cx="80" cy="46.5" r="2.8"/><circle cx="96" cy="46.5" r="2.8"/></g>
  <text x="75" y="27.4" text-anchor="middle" dominant-baseline="central" font-family="Segoe UI, Arial, sans-serif" font-weight="800" font-size="21" fill="#101D35">03</text>
</svg>
